# xmcd
#
# Track frame offsets:
#	150
#	20062
#	41780
#	58337
#	77265
#	92755
#	111705
#	132612
#	154227
#	168307
#
# Disc length: 2477 seconds
#
# Revision: 1
# Processed by: cddbd v1.5.1PL0 Copyright (c) Steve Scherf et al.
# Submitted via: CDex 1.50Beta5
#
DISCID=8c09ab0a
DTITLE=中森明菜 - エトランゼ
DYEAR=1996
DGENRE=Pop
TTITLE0=さよならね
TTITLE1=ビーナス誕生
TTITLE2=少しだけスキャンダル
TTITLE3=感傷紀行
TTITLE4=ルネサンス
TTITLE5=モナムール
TTITLE6=ストライプ
TTITLE7=わくらば色の風
TTITLE8=時にはアンニュイ
TTITLE9=覚悟の秋
EXTD=
EXTT0=
EXTT1=
EXTT2=
EXTT3=
EXTT4=
EXTT5=
EXTT6=
EXTT7=
EXTT8=
EXTT9=
PLAYORDER=
